<svg xmlns="http://www.w3.org/2000/svg" xmlns:xlink="http://www.w3.org/1999/xlink" viewBox="0 0 430 430" width="430" height="430" preserveAspectRatio="xMidYMid meet" style="width: 100%; height: 100%; transform: translate3d(0px, 0px, 0px); content-visibility: visible;"><defs><clipPath id="__lottie_element_1306"><rect width="430" height="430" x="0" y="0"/></clipPath><clipPath id="__lottie_element_1308"><path d="M0,0 L430,0 L430,430 L0,430z"/></clipPath><clipPath id="__lottie_element_1313"><path d="M0,0 L430,0 L430,430 L0,430z"/></clipPath><clipPath id="__lottie_element_1317"><path d="M0,0 L430,0 L430,430 L0,430z"/></clipPath><clipPath id="__lottie_element_1472"><path d="M0,0 L430,0 L430,430 L0,430z"/></clipPath><clipPath id="__lottie_element_1476"><path d="M0,0 L430,0 L430,430 L0,430z"/></clipPath></defs><g clip-path="url(#__lottie_element_1306)"><g clip-path="url(#__lottie_element_1308)" transform="matrix(1,0,0,1,0,0)" opacity="1" style="display: block;"><g clip-path="url(#__lottie_element_1313)" transform="matrix(1,0,0,1,0,0)" opacity="1" style="display: none;"><g transform="matrix(0.997532069683075,-0.07021217048168182,0.07021217048168182,0.997532069683075,-50.94375991821289,-14.647011756896973)" opacity="1" style="display: block;"><g opacity="1" transform="matrix(1,0,0,1,209.99600219726562,160.10699462890625)"><path class="primary" fill="rgb(235,230,239)" fill-opacity="1" d=" M-27.716049194335938,-114.52063751220703 C-27.716049194335938,-114.52063751220703 103.46000671386719,-114.52063751220703 103.46000671386719,-114.52063751220703 C154.4763946533203,-114.52063751220703 195.8336944580078,-73.16407775878906 195.8336944580078,-22.147686004638672 C195.8336944580078,-22.147686004638672 195.8336944580078,-22.146949768066406 195.8336944580078,-22.146949768066406 C195.8336944580078,28.869443893432617 154.4763946533203,70.22599792480469 103.46000671386719,70.22599792480469 C103.46000671386719,70.22599792480469 -120.08899688720703,70.22599792480469 -120.08899688720703,70.22599792480469 C-120.08899688720703,70.22599792480469 -120.08899688720703,-22.147686004638672 -120.08899688720703,-22.147686004638672 C-120.08899688720703,-73.16407775878906 -78.7324447631836,-114.52063751220703 -27.716049194335938,-114.52063751220703z"/></g><g opacity="1" transform="matrix(1,0,0,1,0,0)"><g opacity="1" transform="matrix(1,0,0,1,209.99600219726562,140.45399475097656)"><path class="secondary" fill="rgb(242,76,0)" fill-opacity="1" d=" M36.64971160888672,16.26095962524414 C36.64971160888672,16.26095962524414 31.858905792236328,16.26095962524414 31.858905792236328,16.26095962524414 C25.31796646118164,16.26095962524414 19.928504943847656,11.180651664733887 19.609891891479492,4.714908599853516 C19.609891891479492,4.714908599853516 17.106565475463867,-46.04182052612305 17.106565475463867,-46.04182052612305 C16.702077865600586,-54.246971130371094 23.313474655151367,-61.11872863769531 31.613224029541016,-61.11872863769531 C31.613224029541016,-61.11872863769531 36.89539337158203,-61.11872863769531 36.89539337158203,-61.11872863769531 C45.19514465332031,-61.11872863769531 51.807273864746094,-54.246971130371094 51.40278625488281,-46.04182052612305 C51.40278625488281,-46.04182052612305 48.89872360229492,4.714908599853516 48.89872360229492,4.714908599853516 C48.58011245727539,11.180651664733887 43.190650939941406,16.26095962524414 36.64971160888672,16.26095962524414z"/></g><g opacity="1" transform="matrix(1,0,0,1,209.99600219726562,199.0050048828125)"><path class="secondary" fill="rgb(242,76,0)" fill-opacity="1" d=" M20.382272720336914,-5.854373931884766 C20.382272720336914,-13.535161972045898 26.609222412109375,-19.76211166381836 34.290008544921875,-19.76211166381836 C41.97079849243164,-19.76211166381836 48.197750091552734,-13.535161972045898 48.197750091552734,-5.854373931884766 C48.197750091552734,1.8264141082763672 41.97079849243164,8.053363800048828 34.290008544921875,8.053363800048828 C26.609222412109375,8.053363800048828 20.382272720336914,1.8264141082763672 20.382272720336914,-5.854373931884766z"/></g></g><g opacity="1" transform="matrix(1,0,0,1,0,0)" style="mix-blend-mode: multiply;"><g opacity="1" transform="matrix(1,0,0,1,204.9029998779297,140.4550018310547)"><path class="secondary" fill="rgb(242,76,0)" fill-opacity="1" d=" M43.256370544433594,16.175819396972656 C42.76153564453125,16.240541458129883 42.255226135253906,16.26643180847168 41.7474479675293,16.26643180847168 C41.7474479675293,16.26643180847168 36.95811462402344,16.26643180847168 36.95811462402344,16.26643180847168 C30.41170310974121,16.26643180847168 25.02324104309082,11.178387641906738 24.698156356811523,4.71190881729126 C24.698156356811523,4.71190881729126 22.199565887451172,-46.03982162475586 22.199565887451172,-46.03982162475586 C21.796077728271484,-54.244972229003906 28.40794563293457,-61.12346649169922 36.710697174072266,-61.12346649169922 C36.710697174072266,-61.12346649169922 41.9941291809082,-61.12346649169922 41.9941291809082,-61.12346649169922 C42.42350769042969,-61.12346649169922 42.83993911743164,-61.11125564575195 43.256370544433594,-61.07242202758789 C35.55200958251953,-60.415199279785156 29.630617141723633,-53.820011138916016 30.008214950561523,-46.03982162475586 C30.008214950561523,-46.03982162475586 32.506805419921875,4.71190881729126 32.506805419921875,4.71190881729126 C32.80600357055664,10.675760269165039 37.41264343261719,15.46755313873291 43.256370544433594,16.175819396972656z"/></g><g opacity="1" transform="matrix(1,0,0,1,206.10499572753906,199.0050048828125)"><path class="secondary" fill="rgb(242,76,0)" fill-opacity="1" d=" M42.05289840698242,7.497959613800049 C40.82832336425781,7.858932971954346 39.526084899902344,8.052364349365234 38.18574523925781,8.052364349365234 C30.503957748413086,8.052364349365234 24.279008865356445,1.8274140357971191 24.279008865356445,-5.854373931884766 C24.279008865356445,-13.536162376403809 30.503957748413086,-19.761112213134766 38.18574523925781,-19.761112213134766 C39.526084899902344,-19.761112213134766 40.82832336425781,-19.568416595458984 42.05289840698242,-19.207443237304688 C36.252906799316406,-17.544965744018555 32.0125732421875,-12.19582462310791 32.0125732421875,-5.854373931884766 C32.0125732421875,0.4870764911174774 36.252906799316406,5.835482120513916 42.05289840698242,7.497959613800049z"/></g></g><g opacity="0.5" transform="matrix(1,0,0,1,134.02000427246094,160.11000061035156)" style="mix-blend-mode: multiply;"><path class="primary" fill="rgb(235,230,239)" fill-opacity="1" d=" M71.93244934082031,-114.5181655883789 C20.92252540588379,-114.5181655883789 -20.432294845581055,-73.16260528564453 -20.432294845581055,-22.152687072753906 C-20.432294845581055,-22.152687072753906 -20.432294845581055,70.2249984741211 -20.432294845581055,70.2249984741211 C-20.432294845581055,70.2249984741211 -44.10852813720703,70.2249984741211 -44.10852813720703,70.2249984741211 C-44.10852813720703,70.2249984741211 -44.10852813720703,-22.152687072753906 -44.10852813720703,-22.152687072753906 C-44.10852813720703,-73.16260528564453 -2.7537076473236084,-114.5181655883789 48.2562141418457,-114.5181655883789 C48.2562141418457,-114.5181655883789 71.93244934082031,-114.5181655883789 71.93244934082031,-114.5181655883789z"/></g></g><g transform="matrix(0.9975893497467041,-0.06939386576414108,0.06939386576414108,0.9975893497467041,170.0452423095703,130.29379272460938)" opacity="1" style="display: block;"><g opacity="1" transform="matrix(1,0,0,1,0,0)"/></g><g transform="matrix(0.9975893497467041,-0.06939386576414108,0.06939386576414108,0.9975893497467041,-50.75996398925781,-14.732283592224121)" opacity="1" style="display: block;"><g opacity="1" transform="matrix(1,0,0,1,209.99600219726562,140.45399475097656)"/><g opacity="1" transform="matrix(1,0,0,1,209.99600219726562,199.0050048828125)"/></g></g><g clip-path="url(#__lottie_element_1317)" transform="matrix(1,0,0,1,0,0)" opacity="1" style="display: none;"><g transform="matrix(0.9598360657691956,0.28056150674819946,-0.28056150674819946,0.9598360657691956,95.72366333007812,-144.5630645751953)" opacity="1" style="display: block;"><g opacity="1" transform="matrix(1,0,0,1,290.0299987792969,336.9989929199219)"><path class="tertiary" fill="rgb(75,179,253)" fill-opacity="1" d=" M55.38414764404297,-59.183799743652344 C55.38414764404297,-59.183799743652344 -36.501399993896484,-59.183799743652344 -36.501399993896484,-59.183799743652344 C-72.23684692382812,-59.183799743652344 -101.20634460449219,-30.21430206298828 -101.20634460449219,5.521146774291992 C-101.20634460449219,5.521146774291992 -101.20634460449219,5.521146774291992 -101.20634460449219,5.521146774291992 C-101.20634460449219,41.256595611572266 -72.23684692382812,70.22599792480469 -36.501399993896484,70.22599792480469 C-36.501399993896484,70.22599792480469 116.40396881103516,70.22599792480469 116.40396881103516,70.22599792480469 C118.43921661376953,70.22599792480469 120.08899688720703,68.57621765136719 120.08899688720703,66.54096984863281 C120.08899688720703,66.54096984863281 120.08899688720703,5.521146774291992 120.08899688720703,5.521146774291992 C120.08899688720703,-30.21430206298828 91.11959838867188,-59.183799743652344 55.38414764404297,-59.183799743652344z"/></g><g opacity="0.5" transform="matrix(1,0,0,1,214.05499267578125,337)" style="mix-blend-mode: multiply;"><path class="tertiary" fill="rgb(75,179,253)" fill-opacity="1" d=" M10.305588722229004,51.27219009399414 C22.016704559326172,62.98330307006836 38.19542694091797,70.2249984741211 56.06100845336914,70.2249984741211 C56.06100845336914,70.2249984741211 39.47678756713867,70.2249984741211 39.47678756713867,70.2249984741211 C21.6112060546875,70.2249984741211 5.432483196258545,62.98330307006836 -6.278631687164307,51.27219009399414 C-17.98974609375,39.561073303222656 -25.23225212097168,23.391918182373047 -25.23225212097168,5.5168633460998535 C-25.23225212097168,-30.21430206298828 3.7361512184143066,-59.18270492553711 39.47678756713867,-59.18270492553711 C39.47678756713867,-59.18270492553711 56.06100845336914,-59.18270492553711 56.06100845336914,-59.18270492553711 C20.320371627807617,-59.18270492553711 -8.647126197814941,-30.21430206298828 -8.647126197814941,5.5168633460998535 C-8.647126197814941,23.391918182373047 -1.4055255651474,39.561073303222656 10.305588722229004,51.27219009399414z"/></g></g><g transform="matrix(0.9598360657691956,0.28056150674819946,-0.28056150674819946,0.9598360657691956,279.55596923828125,260.27197265625)" opacity="1" style="display: block;"><g opacity="1" transform="matrix(1,0,0,1,0,0)"/></g><g transform="matrix(0.9598360657691956,0.28056150674819946,-0.28056150674819946,0.9598360657691956,95.72394561767578,-144.5640411376953)" opacity="1" style="display: block;"><g opacity="1" transform="matrix(1,0,0,1,259.0299987792969,323.656005859375)"><path stroke-linecap="round" stroke-linejoin="round" fill-opacity="0" class="primary" stroke="rgb(235,230,239)" stroke-opacity="1" stroke-width="7" d=" M-13.040250778198242,6.339349269866943 C-13.040250778198242,6.339349269866943 50.01115798950195,6.339349269866943 50.01115798950195,6.339349269866943"/></g><g opacity="1" transform="matrix(1,0,0,1,341.7799987792969,323.656005859375)"><path stroke-linecap="round" stroke-linejoin="round" fill-opacity="0" class="primary" stroke="rgb(235,230,239)" stroke-opacity="1" stroke-width="7" d=" M-8.195816993713379,6.339349269866943 C-8.195816993713379,6.339349269866943 19.732820510864258,6.339349269866943 19.732820510864258,6.339349269866943"/></g><g opacity="1" transform="matrix(1,0,0,1,290.0299987792969,358.3429870605469)"><path stroke-linecap="round" stroke-linejoin="round" fill-opacity="0" class="primary" stroke="rgb(235,230,239)" stroke-opacity="1" stroke-width="7" d=" M71.48281860351562,1.0083891153335571 C71.48281860351562,1.0083891153335571 -44.04024887084961,1.0083891153335571 -44.04024887084961,1.0083891153335571"/></g></g></g><g clip-path="url(#__lottie_element_1472)" transform="matrix(1,0,0,1,0,0)" opacity="1" style="display: block;"><g transform="matrix(1,0,0,1,-35,-34.998992919921875)" opacity="1" style="display: block;"><g opacity="1" transform="matrix(1,0,0,1,290.0299987792969,336.9989929199219)"><path class="tertiary" fill="rgb(75,179,253)" fill-opacity="1" d=" M49.862998962402344,-70.22599792480469 C49.862998962402344,-70.22599792480469 -49.862998962402344,-70.22599792480469 -49.862998962402344,-70.22599792480469 C-88.64800262451172,-70.22599792480469 -120.08899688720703,-38.78499984741211 -120.08899688720703,0 C-120.08899688720703,0 -120.08899688720703,0 -120.08899688720703,0 C-120.08899688720703,38.78499984741211 -88.64800262451172,70.22599792480469 -49.862998962402344,70.22599792480469 C-49.862998962402344,70.22599792480469 116.08899688720703,70.22599792480469 116.08899688720703,70.22599792480469 C118.2979965209961,70.22599792480469 120.08899688720703,68.43499755859375 120.08899688720703,66.22599792480469 C120.08899688720703,66.22599792480469 120.08899688720703,0 120.08899688720703,0 C120.08899688720703,-38.78499984741211 88.64800262451172,-70.22599792480469 49.862998962402344,-70.22599792480469z"/></g><g opacity="0.5" transform="matrix(1,0,0,1,214.05499267578125,337)" style="mix-blend-mode: multiply;"><path class="tertiary" fill="rgb(75,179,253)" fill-opacity="1" d=" M-5.545000076293945,49.654998779296875 C7.164999961853027,62.3650016784668 24.725000381469727,70.2249984741211 44.1150016784668,70.2249984741211 C44.1150016784668,70.2249984741211 26.114999771118164,70.2249984741211 26.114999771118164,70.2249984741211 C6.724999904632568,70.2249984741211 -10.835000038146973,62.3650016784668 -23.545000076293945,49.654998779296875 C-36.255001068115234,36.94499969482422 -44.1150016784668,19.395000457763672 -44.1150016784668,-0.004999999888241291 C-44.1150016784668,-38.78499984741211 -12.675000190734863,-70.2249984741211 26.114999771118164,-70.2249984741211 C26.114999771118164,-70.2249984741211 44.1150016784668,-70.2249984741211 44.1150016784668,-70.2249984741211 C5.324999809265137,-70.2249984741211 -26.114999771118164,-38.78499984741211 -26.114999771118164,-0.004999999888241291 C-26.114999771118164,19.395000457763672 -18.2549991607666,36.94499969482422 -5.545000076293945,49.654998779296875z"/></g></g><g transform="matrix(1,0,0,1,255.02999877929688,302)" opacity="1" style="display: block;"><g opacity="1" transform="matrix(1,0,0,1,0,0)"/></g><g transform="matrix(1,0,0,1,-35,-35)" opacity="1" style="display: block;"><g opacity="1" transform="matrix(1,0,0,1,259.0299987792969,323.656005859375)"><path stroke-linecap="round" stroke-linejoin="round" fill-opacity="0" class="primary" stroke="rgb(235,230,239)" stroke-opacity="1" stroke-width="7" d=" M-37.25,0 C-37.25,0 37.25,0 37.25,0"/></g><g opacity="1" transform="matrix(1,0,0,1,341.7799987792969,323.656005859375)"><path stroke-linecap="round" stroke-linejoin="round" fill-opacity="0" class="primary" stroke="rgb(235,230,239)" stroke-opacity="1" stroke-width="7" d=" M-16.5,0 C-16.5,0 16.5,0 16.5,0"/></g><g opacity="1" transform="matrix(1,0,0,1,290.0299987792969,358.3429870605469)"><path stroke-linecap="round" stroke-linejoin="round" fill-opacity="0" class="primary" stroke="rgb(235,230,239)" stroke-opacity="1" stroke-width="7" d=" M68.25,0 C68.25,0 -68.25,0 -68.25,0"/></g></g></g><g clip-path="url(#__lottie_element_1476)" transform="matrix(1,0,0,1,0,0)" opacity="1" style="display: block;"><g transform="matrix(0.9999996423721313,-0.0008203046745620668,0.0008203046745620668,0.9999996423721313,-35.190277099609375,-34.92668151855469)" opacity="1" style="display: block;"><g opacity="1" transform="matrix(1,0,0,1,209.99600219726562,160.10699462890625)"><path class="primary" fill="rgb(235,230,239)" fill-opacity="1" d=" M-49.862998962402344,-70.22599792480469 C-49.862998962402344,-70.22599792480469 49.862998962402344,-70.22599792480469 49.862998962402344,-70.22599792480469 C88.64800262451172,-70.22599792480469 120.08899688720703,-38.78499984741211 120.08899688720703,0 C120.08899688720703,0 120.08899688720703,0 120.08899688720703,0 C120.08899688720703,38.78499984741211 88.64800262451172,70.22599792480469 49.862998962402344,70.22599792480469 C49.862998962402344,70.22599792480469 -120.08899688720703,70.22599792480469 -120.08899688720703,70.22599792480469 C-120.08899688720703,70.22599792480469 -120.08899688720703,0 -120.08899688720703,0 C-120.08899688720703,-38.78499984741211 -88.64800262451172,-70.22599792480469 -49.862998962402344,-70.22599792480469z"/></g><g opacity="1" transform="matrix(1,0,0,1,0,0)"><g opacity="1" transform="matrix(1,0,0,1,209.99600219726562,140.45399475097656)"><path class="secondary" fill="rgb(242,76,0)" fill-opacity="1" d=" M1.840000033378601,30.035999298095703 C1.840000033378601,30.035999298095703 -1.840000033378601,30.035999298095703 -1.840000033378601,30.035999298095703 C-6.866000175476074,30.035999298095703 -11.006999969482422,26.093000411987305 -11.251999855041504,21.072999954223633 C-11.251999855041504,21.072999954223633 -13.175999641418457,-18.332000732421875 -13.175999641418457,-18.332000732421875 C-13.487000465393066,-24.70199966430664 -8.406000137329102,-30.035999298095703 -2.0290000438690186,-30.035999298095703 C-2.0290000438690186,-30.035999298095703 2.0290000438690186,-30.035999298095703 2.0290000438690186,-30.035999298095703 C8.406000137329102,-30.035999298095703 13.487000465393066,-24.70199966430664 13.175999641418457,-18.332000732421875 C13.175999641418457,-18.332000732421875 11.251999855041504,21.072999954223633 11.251999855041504,21.072999954223633 C11.006999969482422,26.093000411987305 6.866000175476074,30.035999298095703 1.840000033378601,30.035999298095703z"/></g><g opacity="1" transform="matrix(1,0,0,1,209.99600219726562,199.0050048828125)"><path class="secondary" fill="rgb(242,76,0)" fill-opacity="1" d=" M-10.791000366210938,0 C-10.791000366210938,-5.959000110626221 -5.959000110626221,-10.791000366210938 0,-10.791000366210938 C5.959000110626221,-10.791000366210938 10.791000366210938,-5.959000110626221 10.791000366210938,0 C10.791000366210938,5.959000110626221 5.959000110626221,10.791000366210938 0,10.791000366210938 C-5.959000110626221,10.791000366210938 -10.791000366210938,5.959000110626221 -10.791000366210938,0z"/></g></g><g opacity="1" transform="matrix(1,0,0,1,0,0)" style="mix-blend-mode: multiply;"><g opacity="1" transform="matrix(1,0,0,1,204.9029998779297,140.4550018310547)"><path class="secondary" fill="rgb(242,76,0)" fill-opacity="1" d=" M8.097000122070312,29.969999313354492 C7.7170000076293945,30.020000457763672 7.327000141143799,30.040000915527344 6.936999797821045,30.040000915527344 C6.936999797821045,30.040000915527344 3.256999969482422,30.040000915527344 3.256999969482422,30.040000915527344 C-1.7730000019073486,30.040000915527344 -5.913000106811523,26.09000015258789 -6.163000106811523,21.06999969482422 C-6.163000106811523,21.06999969482422 -8.083000183105469,-18.329999923706055 -8.083000183105469,-18.329999923706055 C-8.392999649047852,-24.700000762939453 -3.312999963760376,-30.040000915527344 3.066999912261963,-30.040000915527344 C3.066999912261963,-30.040000915527344 7.126999855041504,-30.040000915527344 7.126999855041504,-30.040000915527344 C7.456999778747559,-30.040000915527344 7.7769999504089355,-30.030000686645508 8.097000122070312,-30 C2.177000045776367,-29.489999771118164 -2.372999906539917,-24.3700008392334 -2.0829999446868896,-18.329999923706055 C-2.0829999446868896,-18.329999923706055 -0.16300000250339508,21.06999969482422 -0.16300000250339508,21.06999969482422 C0.06700000166893005,25.700000762939453 3.6070001125335693,29.420000076293945 8.097000122070312,29.969999313354492z"/></g><g opacity="1" transform="matrix(1,0,0,1,206.10499572753906,199.0050048828125)"><path class="secondary" fill="rgb(242,76,0)" fill-opacity="1" d=" M6.894999980926514,10.359999656677246 C5.945000171661377,10.640000343322754 4.934999942779541,10.789999961853027 3.8949999809265137,10.789999961853027 C-2.065000057220459,10.789999961853027 -6.894999980926514,5.960000038146973 -6.894999980926514,0 C-6.894999980926514,-5.960000038146973 -2.065000057220459,-10.789999961853027 3.8949999809265137,-10.789999961853027 C4.934999942779541,-10.789999961853027 5.945000171661377,-10.640000343322754 6.894999980926514,-10.359999656677246 C2.3949999809265137,-9.069999694824219 -0.8949999809265137,-4.920000076293945 -0.8949999809265137,0 C-0.8949999809265137,4.920000076293945 2.3949999809265137,9.069999694824219 6.894999980926514,10.359999656677246z"/></g></g><g opacity="0.5" transform="matrix(1,0,0,1,134.02000427246094,160.11000061035156)" style="mix-blend-mode: multiply;"><path class="primary" fill="rgb(235,230,239)" fill-opacity="1" d=" M44.11000061035156,-70.2249984741211 C5.329999923706055,-70.2249984741211 -26.110000610351562,-38.78499984741211 -26.110000610351562,-0.004999999888241291 C-26.110000610351562,-0.004999999888241291 -26.110000610351562,70.2249984741211 -26.110000610351562,70.2249984741211 C-26.110000610351562,70.2249984741211 -44.11000061035156,70.2249984741211 -44.11000061035156,70.2249984741211 C-44.11000061035156,70.2249984741211 -44.11000061035156,-0.004999999888241291 -44.11000061035156,-0.004999999888241291 C-44.11000061035156,-38.78499984741211 -12.670000076293945,-70.2249984741211 26.110000610351562,-70.2249984741211 C26.110000610351562,-70.2249984741211 44.11000061035156,-70.2249984741211 44.11000061035156,-70.2249984741211z"/></g></g><g transform="matrix(1,0,0,1,175.20799255371094,125)" opacity="1" style="display: block;"><g opacity="1" transform="matrix(1,0,0,1,0,0)"/></g><g transform="matrix(1,0,0,1,-35.001007080078125,-34.998992919921875)" opacity="1" style="display: block;"><g opacity="1" transform="matrix(1,0,0,1,209.99600219726562,140.45399475097656)"/><g opacity="1" transform="matrix(1,0,0,1,209.99600219726562,199.0050048828125)"/></g></g></g></g></svg>